<svg xmlns="http://www.w3.org/2000/svg" viewBox="0 0 95 118.75" x="0px" y="0px"><title>curved arrow1</title><path d="M76.5,24.59a1.45,1.45,0,0,1-1.68,1.16c-16.31-3-27.9-.79-34.43,6.59C31.15,42.79,34.34,61,36,67.69L46.32,55.54a1.44,1.44,0,1,1,2.19,1.87L36.44,71.57l-.09.11A2,2,0,0,1,36,72l0,0a1.39,1.39,0,0,1-.63.21h-.11a1.47,1.47,0,0,1-.94-.34L20.05,59.67a1.44,1.44,0,1,1,1.87-2.2l10.84,9.25a70.9,70.9,0,0,1-1.45-10.44c-.68-11,1.71-20,6.92-25.85C45.48,22.24,58,19.71,75.35,22.91A1.44,1.44,0,0,1,76.5,24.59Z"/><path d="M36.44,71.57A1.49,1.49,0,0,1,36,72a2,2,0,0,0,.32-.27Z"/><text x="0" y="110" fill="#000000" font-size="5px" font-weight="bold" font-family="'Helvetica Neue', Helvetica, Arial-Unicode, Arial, Sans-serif">Created by Madison</text><text x="0" y="115" fill="#000000" font-size="5px" font-weight="bold" font-family="'Helvetica Neue', Helvetica, Arial-Unicode, Arial, Sans-serif">from the Noun Project</text></svg>