<svg width="60" height="61" viewBox="0 0 60 61" fill="none" xmlns="http://www.w3.org/2000/svg">
<path d="M59.5 30.5C59.5 47.0764 46.2846 60.5 30 60.5C13.7154 60.5 0.5 47.0764 0.5 30.5C0.5 13.9236 13.7154 0.5 30 0.5C46.2846 0.5 59.5 13.9236 59.5 30.5Z" fill="#262626" stroke="white"/>
<path d="M16.31 37.216C15.494 37.216 14.75 37.072 14.078 36.784C13.418 36.484 12.89 36.034 12.494 35.434C12.098 34.834 11.888 34.084 11.864 33.184H13.754C13.778 33.856 14.006 34.426 14.438 34.894C14.882 35.35 15.506 35.578 16.31 35.578C17.078 35.578 17.666 35.368 18.074 34.948C18.482 34.516 18.686 33.982 18.686 33.346C18.686 32.578 18.41 32.008 17.858 31.636C17.318 31.264 16.652 31.078 15.86 31.078H14.924V29.494H15.878C16.586 29.494 17.156 29.326 17.588 28.99C18.032 28.654 18.254 28.18 18.254 27.568C18.254 27.052 18.08 26.632 17.732 26.308C17.396 25.984 16.916 25.822 16.292 25.822C15.644 25.822 15.134 26.014 14.762 26.398C14.39 26.77 14.186 27.238 14.15 27.802H12.26C12.284 27.07 12.464 26.434 12.8 25.894C13.148 25.354 13.622 24.934 14.222 24.634C14.822 24.334 15.512 24.184 16.292 24.184C17.132 24.184 17.834 24.334 18.398 24.634C18.974 24.922 19.406 25.318 19.694 25.822C19.994 26.314 20.144 26.854 20.144 27.442C20.144 28.114 19.958 28.702 19.586 29.206C19.214 29.71 18.716 30.046 18.092 30.214C18.812 30.37 19.406 30.724 19.874 31.276C20.342 31.816 20.576 32.518 20.576 33.382C20.576 34.078 20.414 34.72 20.09 35.308C19.766 35.884 19.286 36.346 18.65 36.694C18.014 37.042 17.234 37.216 16.31 37.216ZM27.3223 37.216C26.4343 37.216 25.6663 37.06 25.0183 36.748C24.3703 36.424 23.8543 35.986 23.4703 35.434C23.0983 34.87 22.8703 34.234 22.7863 33.526H24.6583C24.7783 34.126 25.0783 34.624 25.5583 35.02C26.0383 35.404 26.6323 35.596 27.3403 35.596C27.8683 35.596 28.3243 35.47 28.7083 35.218C29.0923 34.954 29.3923 34.606 29.6083 34.174C29.8243 33.742 29.9323 33.256 29.9323 32.716C29.9323 31.864 29.6923 31.186 29.2123 30.682C28.7323 30.166 28.1263 29.908 27.3943 29.908C26.7703 29.908 26.2363 30.058 25.7923 30.358C25.3483 30.646 25.0243 31.012 24.8203 31.456H23.0023L24.0823 24.4H30.8863V26.074H25.5223L24.8743 29.44C25.1503 29.128 25.5283 28.87 26.0083 28.666C26.5003 28.45 27.0523 28.342 27.6643 28.342C28.5163 28.342 29.2483 28.54 29.8603 28.936C30.4723 29.32 30.9403 29.842 31.2643 30.502C31.6003 31.162 31.7683 31.894 31.7683 32.698C31.7683 33.538 31.5883 34.3 31.2283 34.984C30.8683 35.668 30.3523 36.214 29.6803 36.622C29.0203 37.018 28.2343 37.216 27.3223 37.216ZM33.8241 32.572V30.97H37.2261V27.784H38.8821V30.97H42.2841V32.572H38.8821V35.776H37.2261V32.572H33.8241Z" fill="white"/>
</svg>
